<?xml version="1.0" encoding="UTF-8" standalone="no"?>
<!-- Created with Inkscape (http://www.inkscape.org/) -->
<svg
   xmlns:dc="http://purl.org/dc/elements/1.1/"
   xmlns:cc="http://creativecommons.org/ns#"
   xmlns:rdf="http://www.w3.org/1999/02/22-rdf-syntax-ns#"
   xmlns:svg="http://www.w3.org/2000/svg"
   xmlns="http://www.w3.org/2000/svg"
   xmlns:sodipodi="http://sodipodi.sourceforge.net/DTD/sodipodi-0.dtd"
   xmlns:inkscape="http://www.inkscape.org/namespaces/inkscape"
   width="210mm"
   height="297mm"
   id="svg2386"
   sodipodi:version="0.32"
   inkscape:version="0.46+devel"
   sodipodi:docname="Zirkel.svg"
   inkscape:output_extension="org.inkscape.output.svg.inkscape"
   inkscape:export-filename="D:\T! Gotia-Zaringia\Zirkel.png"
   inkscape:export-xdpi="114.05334"
   inkscape:export-ydpi="114.05334">
  <defs
     id="defs3">
    <inkscape:perspective
       sodipodi:type="inkscape:persp3d"
       inkscape:vp_x="0 : 526.18109 : 1"
       inkscape:vp_y="0 : 1000 : 0"
       inkscape:vp_z="744.09448 : 526.18109 : 1"
       inkscape:persp3d-origin="372.04724 : 350.78739 : 1"
       id="perspective2392" />
    <inkscape:perspective
       id="perspective2458"
       inkscape:persp3d-origin="372.04724 : 350.78739 : 1"
       inkscape:vp_z="744.09448 : 526.18109 : 1"
       inkscape:vp_y="0 : 1000 : 0"
       inkscape:vp_x="0 : 526.18109 : 1"
       sodipodi:type="inkscape:persp3d" />
    <inkscape:perspective
       id="perspective2531"
       inkscape:persp3d-origin="372.04724 : 350.78739 : 1"
       inkscape:vp_z="744.09448 : 526.18109 : 1"
       inkscape:vp_y="0 : 1000 : 0"
       inkscape:vp_x="0 : 526.18109 : 1"
       sodipodi:type="inkscape:persp3d" />
    <inkscape:perspective
       id="perspective2479"
       inkscape:persp3d-origin="372.04724 : 350.78739 : 1"
       inkscape:vp_z="744.09448 : 526.18109 : 1"
       inkscape:vp_y="0 : 1000 : 0"
       inkscape:vp_x="0 : 526.18109 : 1"
       sodipodi:type="inkscape:persp3d" />
  </defs>
  <sodipodi:namedview
     inkscape:document-units="mm"
     id="base"
     pagecolor="#ffffff"
     bordercolor="#666666"
     borderopacity="1.0"
     inkscape:pageopacity="0.0"
     inkscape:pageshadow="2"
     inkscape:zoom="1"
     inkscape:cx="493.5"
     inkscape:cy="505.022"
     inkscape:current-layer="layer1"
     showgrid="false"
     inkscape:window-width="1680"
     inkscape:window-height="1031"
     inkscape:window-x="0"
     inkscape:window-y="0" />
  <metadata
     id="metadata4">
    <rdf:RDF>
      <cc:Work
         rdf:about="">
        <dc:format>image/svg+xml</dc:format>
        <dc:type
           rdf:resource="http://purl.org/dc/dcmitype/StillImage" />
      </cc:Work>
    </rdf:RDF>
  </metadata>
  <g
     inkscape:label="Layer 1"
     inkscape:groupmode="layer"
     id="layer1">
    <path
       style="fill:#000000;fill-opacity:1;fill-rule:evenodd;stroke:none;stroke-width:35.43307114;stroke-linecap:round;stroke-linejoin:round;stroke-miterlimit:4;stroke-dasharray:none;stroke-opacity:1"
       d="M 280.32309,168.89906 C 252.37968,174.19446 217.42128,186.38846 197.48909,203.24093 C 175.75702,221.61519 134.6263,265.18139 113.0049,322.86359 C 105.46263,342.98507 101.47969,364.58717 99.89393,387.7625 C 99.896804,387.98036 99.904869,388.19812 99.918119,388.4156 C 101.9088,432.31067 114.01055,469.44266 137.06172,493.76801 C 160.11289,518.09336 193.87412,532.22218 227.00589,533.18535 C 273.92427,534.53829 307.54127,517.06008 334.45471,497.98653 C 339.96032,494.08471 359.88935,474.66089 364.70818,470.62804 C 362.4016,479.7527 358.26661,489.6533 355.82176,504.68353 C 352.33757,526.10321 350.86628,554.00205 350.86628,572.68617 C 350.86628,610.8937 350.11845,658.2606 349.27325,705.5967 C 348.60145,727.38403 347.13584,747.11755 344.15702,765.84032 C 340.93864,786.06871 334.05879,809.45688 326.81958,824.29255 C 318.80875,840.70953 306.76166,857.0443 290.39805,870.18013 C 269.30027,886.24512 244.72996,894.14673 218.554,896.85778 C 197.76346,898.54147 175.72494,895.03993 154.79403,883.6496 C 143.09885,877.28709 133.06218,867.03172 125.93287,857.88051 C 117.1362,846.58908 112.25345,833.82584 112.03205,821.97303 C 111.60504,817.05845 112.3128,808.02512 115.62651,801.61072 C 119.19213,794.70868 125.79937,791.59152 131.33352,795.08648 C 136.82026,798.55151 141.7504,795.88694 143.0912,792.8574 C 144.41443,789.86756 144.1361,786.44137 137.27356,783.07646 C 130.32714,779.67041 112.82997,781.09283 104.2341,791.30277 C 101.03762,795.09945 98.44707,799.63264 96.637261,804.56659 C 92.782429,817.66092 92.98556,834.11849 97.597827,850.83273 C 103.58169,872.51747 121.2868,893.71684 145.3924,908.07374 C 159.7204,916.77646 181.47955,922.58382 203.47142,923.46954 C 223.57039,924.27902 243.7264,920.84029 261.38478,914.54692 C 295.84154,901.22608 318.12186,878.81608 332.86122,851.14992 C 345.14217,828.09825 350.86469,812.86556 356.67982,773.26502 C 359.40773,753.85969 359.54215,731.03435 360.17871,708.84302 C 361.55686,660.7997 362.53678,610.74217 362.53678,573.75721 C 362.53678,537.8971 365.81763,505.8506 372.34399,483.95738 C 375.60718,473.01077 379.37555,466.4986 382.35313,460.9884 C 383.93421,458.06252 388.23686,450.84551 389.30832,449.18778 C 390.184,447.83296 391.12797,445.71469 392.04537,443.62029 C 392.73241,442.05177 392.83568,440.93762 392.8501,439.60392 C 392.86453,438.27021 392.55251,436.96435 391.08107,435.06736 C 389.89778,433.54184 388.15014,432.8242 384.57183,434.21515 C 381.01876,435.59631 379.33403,438.46733 374.00368,444.17811 C 362.17001,456.85637 350.31615,470.12176 326.95419,486.67837 C 303.59223,503.23498 269.35393,510.52371 230.49291,505.9488 C 202.35686,502.63648 179.95662,490.25321 161.82751,471.12199 C 143.72988,452.02398 129.1325,425.85933 127.34818,387.35129 C 124.97845,335.63904 139.42303,292.4942 160.90886,260.74826 C 183.31822,227.63777 204.54041,210.9051 219.9366,203.44962 C 288.75315,170.70681 340.58294,189.26289 409.45789,209.06742 C 440.63068,217.77134 486.52367,224.71378 517.06153,224.62964 C 546.09079,224.54965 559.43776,218.28528 574.74989,210.46453 C 582.86747,206.31844 588.82739,198.66807 591.13019,193.68253 C 593.38324,188.80472 595.12334,186.58659 594.88673,181.91805 C 594.73249,178.87472 592.74069,177.52591 588.45601,177.13047 C 585.4025,176.84865 584.47239,182.22136 581.75629,186.83945 C 578.93183,191.64178 574.17839,194.3391 568.75859,197.17222 C 564.99589,199.13912 541.31295,205.34666 523.03982,203.39724 C 503.77794,201.34234 506.84846,203.83554 424.60807,182.25092 C 377.83915,167.89604 328.89925,162.06523 280.32309,168.89906 z"
       id="path2468"
       sodipodi:nodetypes="cssccssscsscsscccscszzzscscscscssssssssssssscsccsszsszsscc" />
    <path
       style="fill:#000000;fill-opacity:1;fill-rule:evenodd;stroke:none;stroke-width:10.62992096;stroke-linecap:round;stroke-linejoin:round;stroke-miterlimit:4;stroke-dasharray:none;stroke-opacity:1"
       d="m 507.09753,740.06458 c 1.7562172,4.1602985 2.0555624,11.850957 1.1638524,16.922537 -1.41328,8.03789 -5.1047,14.29738 -6.02253,4.31901 C 501.62399,755.06349 504.44065,746.53375 507.09753,740.06458 z M 48.333138,245.22747 c -3.706183,4.69918 -9.491965,19.08817 -10.239278,24.51768 -1.407724,10.22768 -0.817302,14.21024 -0.018979,19.88576 0.984408,6.99839 6.705512,16.59304 10.320064,20.07633 6.46734,6.2325 16.058382,10.92066 23.797269,10.4473 7.472765,-0.45709 11.285727,-2.52176 16.615087,-6.66681 5.323929,-4.35287 8.713699,-14.2215 7.202571,-20.5158 -1.104367,-3.83828 -3.370508,-7.54851 -6.880217,-9.2726 -4.800461,-0.761 -6.533159,1.53525 -6.106878,4.80006 0.219879,1.68402 1.351754,4.0477 2.22475,5.49671 0.773913,1.26824 0.846879,4.6712 1.1956,6.14875 -0.120684,0.94133 -2.180632,5.08873 -4.071148,6.51532 -3.859887,2.9127 -6.322783,3.30336 -11.091878,3.03069 -5.736553,-0.32798 -10.570258,-4.25161 -13.945376,-8.47051 -3.991494,-4.98937 -5.367545,-8.71214 -5.413105,-15.82432 -0.031782,-4.96146 0.27795,-8.81549 2.094739,-13.53381 1.385765,-3.59892 6.820496,-11.68439 16.699497,-18.55459 12.706418,-8.83649 36.084454,-8.4138 52.425324,-6.73874 41.51181,4.25525 102.33023,26.24524 131.38385,35.53672 8.17924,2.61575 31.10066,11.04623 36.65442,13.48724 -0.66183,0.785 -11.18666,13.97397 -17.82216,26.15831 -10.50392,19.28768 -15.84847,48.64562 -16.42966,89.76495 -0.21945,15.52594 -1.4053,36.27905 -1.41767,57.59452 -0.01897,32.6866 1.24841,68.48843 0.98753,83.02363 -0.23383,13.02834 -1.14709,41.1004 -3.83164,72.32511 -2.15644,24.90797 -4.51386,33.74452 -10.30773,49.73873 -3.1535,8.70537 -8.83011,19.23621 -13.15774,23.92345 -19.04062,-10.7718 -33.75703,-18.10201 -60.06526,-24.05463 -31.92642,-7.22382 -60.34293,-3.68145 -76.909028,2.67874 -18.442884,7.29551 -33.987613,18.02854 -40.237657,31.46422 -5.316667,15.0058 -2.265717,27.4749 6.24766,36.47306 8.611749,9.10213 22.788597,14.66882 35.271528,18.56772 16.591467,3.96433 43.842927,3.98618 59.908657,-0.77404 26.29043,-7.78977 38.20098,-11.61059 64.26877,-33.25399 36.19869,18.95525 88.06979,35.9464 123.90402,43.05718 25.95953,5.15129 35.55403,3.85979 46.39783,2.60038 13.4054,-1.55692 27.47903,-5.07898 45.59582,-19.83479 25.14268,-20.47826 33.346198,-51.256955 39.732598,-76.261015 9.38707,15.44281 20.298962,32.559916 27.620444,48.448266 -4.96721,10.15999 -12.969072,32.965699 -7.1922209,45.817019 2.4774,5.51128 5.99382,10.15135 13.5366,10.51975 2.86127,-0.21316 6.92586,-3.0331 9.34518,-5.67875 11.90282,-16.65156 5.9763197,-37.12706 1.1552797,-55.17605 4.64128,-9.663 10.93703,-21.57885 19.87656,-42.1166 8.9395267,-20.53775 19.79478,-57.63823 23.21424,-88.04299 2.71877,2.14428 7.02549,9.54957 11.66976,12.45865 3.68553,2.30864 7.21216,1.05842 6.36817,-3.37313 -1.73732,-6.48122 -12.36562,-20.06324 -15.47064,-24.0338 0.97677,-13.19221 2.66522,-63.69666 -19.06131,-64.12808 -3.26868,0.56356 -8.10936,3.82704 -9.45413,6.92824 -1.34478,3.1012 -4.21938,13.07479 -0.36284,26.95134 3.76603,13.55085 8.7588,19.96526 16.66857,31.94694 -0.9684,9.21962 -4.63515,33.93323 -8.20968,48.6688 -4.50604,18.57565 -9.7003428,36.496671 -19.299883,57.109391 -4.80819,10.32444 -7.5355515,17.055708 -11.471154,25.534605 -9.938623,-20.05607 -24.080703,-46.845936 -33.679073,-61.948306 1.50177,-11.76143 3.6071891,-29.440939 2.6435691,-41.196199 -0.85224,-6.96995 -3.36969,-13.97162 -7.20404,-19.8138 -3.6685,-6.169 -8.34239,-8.06955 -13.79412,-7.20387 -11.85819,3.75535 -15.0477,15.99858 -15.70645,27.05331 0,19.78362 3.9716546,29.518101 19.700954,58.935711 C 458.7538,692.99701 441.86645,724.57277 426.83909,736.2253 c -16.22311,12.57974 -25.91776,15.78121 -40.51093,16.87417 -18.29769,1.37042 -29.89097,-0.07215 -49.45425,-6.35827 -30.41566,-9.77322 -63.17054,-24.47747 -97.86318,-44.36243 2.98701,-4.14842 5.47444,-7.47601 8.3595,-13.87288 5.74232,-12.73214 12.99968,-29.38509 16.95366,-61.11057 3.94424,-31.64744 2.17247,-62.73145 2.09052,-76.94877 -0.09284,-15.91088 -1.36554,-48.96532 -0.96274,-80.63559 0.26552,-20.8766 0.66862,-38.56848 1.09303,-57.14385 0.36145,-15.82041 1.53609,-37.32561 4.49807,-52.08066 4.15923,-20.71909 11.28354,-33.03051 15.22445,-40.54424 5.44037,-10.37259 10.02118,-14.41753 15.46001,-20.45115 20.94557,7.00644 35.5768,12.61105 55.23637,16.05132 13.37831,2.34109 32.92726,5.29445 44.76331,4.50284 10.45599,-0.70618 21.66475,-3.76173 29.78455,-7.63285 9.01306,-4.29699 17.61907,-11.26138 22.4978,-18.45492 8.32656,-18.18908 -7.44484,-31.6201 -22.77764,-37.80926 -12.7722,-4.29861 -24.59991,-7.28913 -48.51634,-4.9412 -21.54032,2.11466 -31.21975,5.27113 -44.57507,10.09826 -7.07515,2.55722 -17.69778,7.07702 -24.89993,12.6779 -5.02764,-2.20572 -11.26419,-4.90213 -22.5439,-9.77633 -13.79678,-5.96187 -42.14209,-15.9631 -71.82027,-27.20625 -26.57403,-10.06719 -54.26329,-21.01108 -74.53561,-24.07171 -37.70125,-4.99158 -70.002173,2.06458 -96.007362,32.19861 z m 354.38588,57.49444 c -9.37603,-0.63061 -18.5486,-2.4639 -30.82691,-6.20982 -17.51122,-5.3424 -26.55105,-10.57051 -46.45811,-17.34149 5.76243,-3.94317 9.11884,-5.80521 17.20084,-8.43334 22.85359,-8.3967 45.93631,-12.91413 69.95522,-8.62282 9.9523,1.95997 19.45789,4.71826 26.20508,9.18495 6.86153,4.54238 7.76475,12.27042 6.87624,16.12409 -6.5257,17.04554 -27.94542,16.17553 -42.95236,15.29843 z m 149.98373,259.3543 c -5.16442,-8.5597 -10.9446,-20.43537 -8.43786,-30.87942 1.38864,-3.41186 4.40539,-2.37624 5.69817,1.68731 2.2188,6.97429 2.85051,23.81085 2.73969,29.19211 z m -87.20205,31.69135 c 3.89786,3.13969 5.6381626,8.4557894 6.1009454,13.009301 1.0155766,9.992699 -0.4841134,25.867809 -1.3487634,30.502399 -4.62521,-8.75221 -9.63918,-29.08427 -9.79801,-35.74212 -0.13592,-5.6975 2.32025,-10.19214 5.04583,-7.76958 z M 112.63443,699.92743 c 10.8536,-0.05035 33.65862,-0.03423 48.37469,4.66435 19.51533,6.23091 27.52114,9.39372 45.55005,19.6288 -17.64642,15.6094 -38.5982,25.14005 -60.78287,28.88458 -15.78291,2.66397 -32.18983,2.39938 -48.474481,-0.68842 -10.015849,-2.63952 -18.746133,-7.6744 -24.728165,-12.4847 -15.699754,-14.44432 -11.184118,-23.27838 0.929955,-29.69866 11.145224,-5.90681 28.909241,-9.95765 39.130821,-10.30595 z"
       id="path3311"
       sodipodi:nodetypes="cscccsssscccsccsssssssscsssssscsccscscsssccsccczcccccsscsscccccccssscssssssscsssccsscsscccccccscccccccscsccsccccsccsc" />
    <path
       style="fill:#000000;fill-opacity:1;fill-rule:evenodd;stroke:none;stroke-width:21.55039406;stroke-linecap:round;stroke-linejoin:round;stroke-miterlimit:4;stroke-dasharray:none;stroke-opacity:1"
       d="M 638.55384,376.82597 C 637.40113,381.9036 637.59492,385.33189 637.48312,391.72423 C 636.35251,456.37073 652.20658,633.12357 652.70733,702.05494 C 652.78259,712.415 651.65695,715.93272 658.3956,719.70541 C 662.47324,720.7886 664.55712,719.14116 665.98556,713.32956 C 669.33012,664.64435 681.65936,398.90219 680.52182,379.94448 C 679.77135,367.30466 672.88802,364.79128 664.71239,363.8436 C 659.47132,363.53592 643.49537,363.99631 638.55384,376.82597 z"
       id="path3317"
       sodipodi:nodetypes="cssccscc" />
    <path
       sodipodi:type="arc"
       style="fill:#000000;fill-opacity:1;stroke-width:21.55039406;stroke-linecap:round;stroke-linejoin:round;stroke-miterlimit:4;stroke-dasharray:none"
       id="path3331"
       sodipodi:cx="967"
       sodipodi:cy="763.36218"
       sodipodi:rx="32.710243"
       sodipodi:ry="44"
       d="M 999.71024,763.36218 A 32.710243,44 0 1 1 934.28976,763.36218 A 32.710243,44 0 1 1 999.71024,763.36218 z"
       transform="matrix(0.5435841,-0.2032381,0.1688568,0.4516283,2.6442785,624.60029)" />
  </g>
</svg>
